<?xml version="1.0" encoding="UTF-8"?>
<svg id="_레이어_1" data-name="레이어 1" xmlns="http://www.w3.org/2000/svg" viewBox="0 0 799.75 820.93">
  <path d="M145.67,308.5c32.06,0,59.86-7.06,83.32-21.26,23.38-14.2,44.59-32.48,63.55-54.79,18.88-22.37,37.44-45.92,55.52-70.79,18.88-26.94,39.05-52.64,60.42-77.09,21.45-24.52,45.88-44.68,73.44-60.67,27.64-15.93,61.14-23.9,100.59-23.9,42.82,0,80.43,9.56,112.96,28.68,32.46,19.19,58.01,45.58,76.49,79.31,18.48,33.66,27.8,73.21,27.8,118.58,0,19.19-2.09,39.2-6.19,60.12-4.18,20.92-9.88,40.45-17.27,58.53-7.39,18.08-15.27,32.83-23.46,44.12-2.49,2.84-5.38,5.19-8.68,6.93-3.21,1.8-8.2,3.05-14.78,3.74l-186.32,6.37c-4.1.69-6.43-.9-6.83-4.78s1.04-6.23,4.34-6.93c24.67-8.52,50.78-18.63,78.34-30.34,27.64-11.71,52.87-25.35,75.93-40.93,23.06-15.58,41.78-33.52,56.16-53.75,14.38-20.22,21.61-43.43,21.61-69.68,0-18.42-3.7-35.81-11.17-52.09-7.39-16.35-20.33-29.78-38.81-40.45-18.56-10.67-43.87-15.93-75.93-15.93-38.65,0-71.75,7.62-99.39,22.86-27.56,15.24-51.58,34.56-72.15,57.97-20.57,23.41-39.93,47.86-58.01,73.42-18.88,24.8-38.24,48.55-58.01,71.27-19.76,22.72-42.58,41.28-68.45,55.83-25.95,14.55-57.45,21.82-94.41,21.82-45.31,0-82.27-10.6-111.12-31.93-28.76-21.26-50.14-48.42-64.2-81.38C6.99,248.38,0,214.51,0,179.74c0-23.41,2.49-47.1,7.39-71.27,4.98-24.1,11.97-44.68,21.05-61.71,2.41-6.37,5.7-10.6,9.8-12.74,4.18-2.15,8.68-3.19,13.58-3.19l166.64-2.15c3.29,0,5.38,1.59,6.19,4.78s0,5.54-2.49,6.93c-12.37,3.6-29.41,8.87-51.18,16-21.85,7.06-43.87,16.97-66.04,29.78-22.26,12.74-41.14,28.68-56.8,47.86-15.59,19.12-23.46,42.53-23.46,70.23,0,21.26,4.98,39.69,14.86,55.27,9.88,15.65,23.62,27.71,41.3,36.22,17.76,8.52,39.29,12.74,64.84,12.74Z"/>
  <path d="M776.51,534.41c-15.62-29.75-37.82-54.02-67.43-72.8-29.6-18.79-65.79-28.18-106.9-28.18-24.67,0-49.34,3.91-74.83,11.74-24.67,7.05-48.52,18.79-69.9,33.66-21.38,15.66-38.65,35.23-51.8,58.71-13.16,24.27-19.74,52.45-19.74,84.55,0,35.23,8.23,68.11,24.67,98.64,16.44,30.53,39.47,54.8,69.07,72.8,10.69,6.26,22.2,11.74,34.54,15.66,0,0-203.14-28.07-271.37-32.09-33.65-1.98-61.68-7.83-84.7-22.71-23.03-14.87-40.29-36.01-52.63-62.63-11.51-26.62-17.27-57.93-17.27-93.94,0-9.39,0-18,1.65-25.84l159.54-.78h81.41c4.11,0,7.4-2.35,9.04-7.83.82-4.7,1.65-10.96,1.65-19.57,0-36.79-10.69-64.19-32.07-81.41-22.2-18-52.63-26.62-91.28-26.62-41.12,0-78.95,9.39-111.01,27.4-32.9,18-59.21,42.27-78.12,72.02C9.27,565.72.22,599.38.22,636.96c0,31.32,7.4,61.06,22.2,88.46,14.8,28.18,37.01,50.89,65.79,67.32,28.79,17.23,64.15,25.84,105.26,25.84l392.26,2.35h2.47c37.83,0,72.37-8.61,103.62-24.27,32.07-15.66,58.38-38.36,78.12-67.33,19.74-28.96,29.6-62.63,29.6-100.99,0-33.66-7.4-64.98-23.03-93.94ZM112.88,493.7c17.27-25.83,40.3-39.14,69.9-39.14,24.67,0,42.76,10.18,53.45,31.32,9.87,17.23,13.98,39.93,13.98,67.32l-158.71,2.35c3.29-24.27,10.69-45.41,21.38-61.85ZM681.95,765.35c-15.62,24.27-37.83,36.79-66.61,36.79-26.32,0-49.34-9.39-69.9-27.4-20.56-18-37-43.06-48.52-75.15-12.34-32.09-18.09-68.89-18.09-110.38,0-45.41,8.23-79.85,23.85-102.55,15.62-22.7,37.82-34.45,66.61-34.45,24.67,0,46.87,8.61,67.43,24.27,20.56,16.44,37,39.93,50.16,70.46,12.33,31.31,18.91,68.11,18.91,111.16,0,47.75-8.22,83.76-23.85,107.25Z"/>
</svg>